<mxfile host="app.diagrams.net" agent="Mozilla/5.0 (Windows NT 10.0; Win64; x64; rv:132.0) Gecko/20100101 Firefox/132.0" version="24.8.4">
  <diagram name="PÃ¡gina-1" id="2UFubnlOPNcLVtzOg3cz">
    <mxGraphModel dx="1000" dy="511" grid="1" gridSize="10" guides="1" tooltips="1" connect="1" arrows="1" fold="1" page="1" pageScale="1" pageWidth="827" pageHeight="1169" math="0" shadow="0">
      <root>
        <mxCell id="0" />
        <mxCell id="1" parent="0" />
        <mxCell id="4KdWAY72Oj23wz-Gb6Jc-6" style="edgeStyle=orthogonalEdgeStyle;rounded=0;orthogonalLoop=1;jettySize=auto;html=1;entryX=0.5;entryY=0;entryDx=0;entryDy=0;" edge="1" parent="1" source="4KdWAY72Oj23wz-Gb6Jc-1" target="4KdWAY72Oj23wz-Gb6Jc-5">
          <mxGeometry relative="1" as="geometry" />
        </mxCell>
        <mxCell id="4KdWAY72Oj23wz-Gb6Jc-1" value="INICIO" style="ellipse;whiteSpace=wrap;html=1;" vertex="1" parent="1">
          <mxGeometry x="354" width="120" height="80" as="geometry" />
        </mxCell>
        <mxCell id="4KdWAY72Oj23wz-Gb6Jc-9" value="" style="edgeStyle=orthogonalEdgeStyle;rounded=0;orthogonalLoop=1;jettySize=auto;html=1;" edge="1" parent="1" source="4KdWAY72Oj23wz-Gb6Jc-2" target="4KdWAY72Oj23wz-Gb6Jc-8">
          <mxGeometry relative="1" as="geometry" />
        </mxCell>
        <mxCell id="4KdWAY72Oj23wz-Gb6Jc-2" value="num2 = &quot;Introduce el segundo numero&quot;" style="shape=parallelogram;perimeter=parallelogramPerimeter;whiteSpace=wrap;html=1;fixedSize=1;" vertex="1" parent="1">
          <mxGeometry x="339" y="240" width="150" height="60" as="geometry" />
        </mxCell>
        <mxCell id="4KdWAY72Oj23wz-Gb6Jc-7" style="edgeStyle=orthogonalEdgeStyle;rounded=0;orthogonalLoop=1;jettySize=auto;html=1;entryX=0.5;entryY=0;entryDx=0;entryDy=0;" edge="1" parent="1" source="4KdWAY72Oj23wz-Gb6Jc-5" target="4KdWAY72Oj23wz-Gb6Jc-2">
          <mxGeometry relative="1" as="geometry" />
        </mxCell>
        <mxCell id="4KdWAY72Oj23wz-Gb6Jc-5" value="&lt;div&gt;num1 = &quot;Introduce el&amp;nbsp;&lt;/div&gt;&lt;div&gt;primer numero&quot;&lt;/div&gt;" style="shape=parallelogram;perimeter=parallelogramPerimeter;whiteSpace=wrap;html=1;fixedSize=1;" vertex="1" parent="1">
          <mxGeometry x="339" y="130" width="150" height="60" as="geometry" />
        </mxCell>
        <mxCell id="4KdWAY72Oj23wz-Gb6Jc-12" style="edgeStyle=orthogonalEdgeStyle;rounded=0;orthogonalLoop=1;jettySize=auto;html=1;entryX=0.5;entryY=0;entryDx=0;entryDy=0;" edge="1" parent="1" source="4KdWAY72Oj23wz-Gb6Jc-8" target="4KdWAY72Oj23wz-Gb6Jc-10">
          <mxGeometry relative="1" as="geometry">
            <Array as="points">
              <mxPoint x="244" y="410" />
            </Array>
          </mxGeometry>
        </mxCell>
        <mxCell id="4KdWAY72Oj23wz-Gb6Jc-13" style="edgeStyle=orthogonalEdgeStyle;rounded=0;orthogonalLoop=1;jettySize=auto;html=1;entryX=0.5;entryY=0;entryDx=0;entryDy=0;" edge="1" parent="1" source="4KdWAY72Oj23wz-Gb6Jc-8" target="4KdWAY72Oj23wz-Gb6Jc-11">
          <mxGeometry relative="1" as="geometry">
            <Array as="points">
              <mxPoint x="584" y="410" />
            </Array>
          </mxGeometry>
        </mxCell>
        <mxCell id="4KdWAY72Oj23wz-Gb6Jc-8" value="num1&amp;lt; 0 ?" style="rhombus;whiteSpace=wrap;html=1;" vertex="1" parent="1">
          <mxGeometry x="319" y="370" width="190" height="80" as="geometry" />
        </mxCell>
        <mxCell id="4KdWAY72Oj23wz-Gb6Jc-15" style="edgeStyle=orthogonalEdgeStyle;rounded=0;orthogonalLoop=1;jettySize=auto;html=1;entryX=0;entryY=0.5;entryDx=0;entryDy=0;" edge="1" parent="1" source="4KdWAY72Oj23wz-Gb6Jc-10" target="4KdWAY72Oj23wz-Gb6Jc-14">
          <mxGeometry relative="1" as="geometry">
            <Array as="points">
              <mxPoint x="244" y="680" />
            </Array>
          </mxGeometry>
        </mxCell>
        <mxCell id="4KdWAY72Oj23wz-Gb6Jc-10" value="Escribir: num2 &quot;es mayor&quot;" style="shape=parallelogram;perimeter=parallelogramPerimeter;whiteSpace=wrap;html=1;fixedSize=1;" vertex="1" parent="1">
          <mxGeometry x="169" y="500" width="150" height="60" as="geometry" />
        </mxCell>
        <mxCell id="4KdWAY72Oj23wz-Gb6Jc-16" style="edgeStyle=orthogonalEdgeStyle;rounded=0;orthogonalLoop=1;jettySize=auto;html=1;entryX=1;entryY=0.5;entryDx=0;entryDy=0;" edge="1" parent="1" source="4KdWAY72Oj23wz-Gb6Jc-11" target="4KdWAY72Oj23wz-Gb6Jc-14">
          <mxGeometry relative="1" as="geometry">
            <Array as="points">
              <mxPoint x="584" y="680" />
            </Array>
          </mxGeometry>
        </mxCell>
        <mxCell id="4KdWAY72Oj23wz-Gb6Jc-11" value="Escribir: num1 &quot;es mayor&quot;" style="shape=parallelogram;perimeter=parallelogramPerimeter;whiteSpace=wrap;html=1;fixedSize=1;" vertex="1" parent="1">
          <mxGeometry x="509" y="500" width="150" height="60" as="geometry" />
        </mxCell>
        <mxCell id="4KdWAY72Oj23wz-Gb6Jc-14" value="FIN" style="ellipse;whiteSpace=wrap;html=1;aspect=fixed;" vertex="1" parent="1">
          <mxGeometry x="374" y="640" width="80" height="80" as="geometry" />
        </mxCell>
        <mxCell id="4KdWAY72Oj23wz-Gb6Jc-17" value="si" style="text;html=1;align=center;verticalAlign=middle;whiteSpace=wrap;rounded=0;" vertex="1" parent="1">
          <mxGeometry x="270" y="380" width="60" height="30" as="geometry" />
        </mxCell>
        <mxCell id="4KdWAY72Oj23wz-Gb6Jc-18" value="no" style="text;html=1;align=center;verticalAlign=middle;resizable=0;points=[];autosize=1;strokeColor=none;fillColor=none;" vertex="1" parent="1">
          <mxGeometry x="500" y="378" width="40" height="30" as="geometry" />
        </mxCell>
      </root>
    </mxGraphModel>
  </diagram>
</mxfile>
